<svg width="1440" height="993" viewBox="0 0 1440 993" fill="none" xmlns="http://www.w3.org/2000/svg">
<g clip-path="url(#clip0_527_3767)">
<rect width="1440" height="993" fill="#F8F8F8"/>
<path d="M0 548C0 536.954 8.9543 528 20 528H76C87.0457 528 96 536.954 96 548V1024H0V548Z" fill="#9ED3DA"/>
<path d="M1090 490C1090 478.954 1098.95 470 1110 470H1166C1177.05 470 1186 478.954 1186 490V1024H1090V490Z" fill="#9ED3DA"/>
<path d="M96 718C96 706.954 104.954 698 116 698H172C183.046 698 192 706.954 192 718V1024H96V718Z" fill="#9ED3DA"/>
<path d="M1186 675C1186 663.954 1194.95 655 1206 655H1262C1273.05 655 1282 663.954 1282 675V1024H1186V675Z" fill="#9ED3DA"/>
<path d="M189 630C189 618.954 197.954 610 209 610H265C276.046 610 285 618.954 285 630V1024H189V630Z" fill="#9ED3DA"/>
<path d="M1279 744C1279 732.954 1287.95 724 1299 724H1355C1366.05 724 1375 732.954 1375 744V1024H1279V744Z" fill="#9ED3DA"/>
<path d="M1375 660C1375 648.954 1383.95 640 1395 640H1420C1431.05 640 1440 648.954 1440 660V1024H1375V660Z" fill="#9ED3DA"/>
<path d="M282 718C282 706.954 290.954 698 302 698H467C478.046 698 487 706.954 487 718V1024H282V718Z" fill="#9ED3DA"/>
<path d="M568 691C568 679.954 576.954 671 588 671H710C721.046 671 730 679.954 730 691V1024H568V691Z" fill="#9ED3DA"/>
<path d="M487 780C487 768.954 495.954 760 507 760H548C559.046 760 568 768.954 568 780V1024H487V780Z" fill="#9ED3DA"/>
<path d="M730 743C730 731.954 738.954 723 750 723H816C827.046 723 836 731.954 836 743V1024H730V743Z" fill="#9ED3DA"/>
<path d="M834 689C834 677.954 842.954 669 854 669H920C931.046 669 940 677.954 940 689V1024H834V689Z" fill="#9ED3DA"/>
<path d="M940 630C940 618.954 948.954 610 960 610H1070C1081.05 610 1090 618.954 1090 630V1024H940V630Z" fill="#9ED3DA"/>
</g>
<defs>
<clipPath id="clip0_527_3767">
<rect width="1440" height="993" fill="white"/>
</clipPath>
</defs>
</svg>
