<svg width="393" height="852" viewBox="0 0 393 852" fill="none" xmlns="http://www.w3.org/2000/svg">
<g clip-path="url(#clip0_566_5500)">
<rect width="393" height="852" fill="white"/>
<path d="M0 553C0 541.954 8.95431 533 20 533H56C67.0457 533 76 541.954 76 553V882H0V553Z" fill="#9ED3DA"/>
<path d="M299 578C299 566.954 307.954 558 319 558H373C384.046 558 393 566.954 393 578V882H299V578Z" fill="#9ED3DA"/>
<path d="M70 660C70 648.954 78.9543 640 90 640H146C157.046 640 166 648.954 166 660V882H70V660Z" fill="#9ED3DA"/>
<path d="M163 617C163 605.954 171.954 597 183 597H239C250.046 597 259 605.954 259 617V882H163V617Z" fill="#9ED3DA"/>
<path d="M256 697C256 685.954 264.954 677 276 677H375C386.046 677 395 685.954 395 697V882H256V697Z" fill="#9ED3DA"/>
</g>
<defs>
<clipPath id="clip0_566_5500">
<rect width="393" height="852" fill="white"/>
</clipPath>
</defs>
</svg>
