<svg width="393" height="852" viewBox="0 0 393 852" fill="none" xmlns="http://www.w3.org/2000/svg">
<g clip-path="url(#clip0_566_5500)">
<rect width="393" height="852" fill="white"/>
<path d="M0 493C0 481.954 8.95431 473 20 473H56C67.0457 473 76 481.954 76 493V852H0V493Z" fill="#9ED3DA"/>
<path d="M299 520C299 508.954 307.954 500 319 500H373C384.046 500 393 508.954 393 520V852H299V520Z" fill="#9ED3DA"/>
<path d="M70 595C70 583.954 78.9543 575 90 575H146C157.046 575 166 583.954 166 595V852H70V595Z" fill="#9ED3DA"/>
<path d="M163 562C163 550.954 171.954 542 183 542H239C250.046 542 259 550.954 259 562V852H163V562Z" fill="#9ED3DA"/>
<path d="M256 620C256 608.954 264.954 600 276 600H375C386.046 600 395 608.954 395 620V852H256V620Z" fill="#9ED3DA"/>
</g>
<defs>
<clipPath id="clip0_566_5500">
<rect width="393" height="852" fill="white"/>
</clipPath>
</defs>
</svg>
